<svg width="53" height="51" viewBox="0 0 53 51" fill="none" xmlns="http://www.w3.org/2000/svg">
<path fill-rule="evenodd" clip-rule="evenodd" d="M6.00597 41.3598H3.9588V42.17H5.83873V42.8562H3.9588V43.851H6.09823V44.5372H3.17164V40.6793H6.00597V41.3598Z" fill="white"/>
<path fill-rule="evenodd" clip-rule="evenodd" d="M8.59526 43.4877L8.98163 43.851C8.83746 43.9288 8.67888 43.9548 8.54624 43.9548C8.11086 43.9548 7.49671 43.6866 7.49671 42.6082C7.49671 41.5299 8.11086 41.2617 8.54624 41.2617C8.98163 41.2617 9.5929 41.5299 9.5929 42.6082C9.5929 42.9687 9.5237 43.2368 9.41701 43.4358L9.00758 43.0552L8.59526 43.4877ZM10.4175 44.3786L9.99656 43.9836C10.233 43.6837 10.4002 43.2426 10.4002 42.6082C10.4002 40.7975 9.0566 40.5784 8.54624 40.5784C8.03589 40.5784 6.69226 40.7975 6.69226 42.6082C6.69226 44.419 8.03589 44.6381 8.54624 44.6381C8.77114 44.6381 9.16905 44.5949 9.53523 44.3786L9.99368 44.814L10.4175 44.3786Z" fill="white"/>
<path fill-rule="evenodd" clip-rule="evenodd" d="M14.1918 43.1878C14.1918 44.1999 13.5776 44.6381 12.606 44.6381C12.2513 44.6381 11.7265 44.5516 11.3805 44.171C11.1701 43.9375 11.0893 43.6203 11.0807 43.2368V40.6793H11.9024V43.182C11.9024 43.7212 12.2138 43.9548 12.5887 43.9548C13.1423 43.9548 13.3672 43.6866 13.3672 43.2195V40.6793H14.1918V43.1878Z" fill="white"/>
<path fill-rule="evenodd" clip-rule="evenodd" d="M16.3514 41.5502H16.3629L16.8416 43.0754H15.8583L16.3514 41.5502ZM15.6392 43.7386H17.0636L17.3115 44.5344H18.1881L16.83 40.6765H15.8987L14.5234 44.5344H15.3711L15.6392 43.7386Z" fill="white"/>
<path fill-rule="evenodd" clip-rule="evenodd" d="M19.6211 43.8366H21.5386V44.5372H18.8138V40.6793H19.6211V43.8366Z" fill="white"/>
<path fill-rule="evenodd" clip-rule="evenodd" d="M24.5949 42.8043V44.5372H23.7904V40.6793H24.5949V42.1383H26.1V40.6793H26.9044V44.5372H26.1V42.8043H24.5949Z" fill="white"/>
<path fill-rule="evenodd" clip-rule="evenodd" d="M28.4384 42.6054C28.4384 41.5271 29.0525 41.2589 29.485 41.2589C29.9204 41.2589 30.5345 41.5271 30.5345 42.6054C30.5345 43.6838 29.9204 43.9519 29.485 43.9519C29.0525 43.9548 28.4384 43.6867 28.4384 42.6054ZM27.6339 42.6054C27.6339 44.4162 28.9775 44.6353 29.485 44.6353C29.9982 44.6353 31.339 44.4162 31.339 42.6054C31.339 40.7947 29.9954 40.5756 29.485 40.5756C28.9775 40.5784 27.6339 40.7976 27.6339 42.6054Z" fill="white"/>
<path fill-rule="evenodd" clip-rule="evenodd" d="M35.1882 43.1878C35.1882 44.1999 34.5741 44.6381 33.6024 44.6381C33.2478 44.6381 32.723 44.5516 32.377 44.171C32.1665 43.9375 32.0858 43.6203 32.0771 43.2368V40.6793H32.8989V43.182C32.8989 43.7212 33.2103 43.9548 33.588 43.9548C34.1416 43.9548 34.3665 43.6866 34.3665 43.2195V40.6793H35.1882V43.1878Z" fill="white"/>
<path fill-rule="evenodd" clip-rule="evenodd" d="M36.6617 43.3493C36.6674 43.5626 36.777 43.9721 37.4805 43.9721C37.8611 43.9721 38.2879 43.8798 38.2879 43.4704C38.2879 43.1705 37.9966 43.0898 37.5901 42.9946L37.1749 42.8966C36.5492 42.7524 35.9495 42.614 35.9495 41.7663C35.9495 41.3367 36.183 40.5784 37.4315 40.5784C38.6137 40.5784 38.9308 41.3511 38.9366 41.824H38.161C38.1408 41.6539 38.0745 41.2444 37.371 41.2444C37.0653 41.2444 36.6991 41.3569 36.6991 41.7058C36.6991 42.0085 36.9471 42.0691 37.1057 42.1065L38.0457 42.3372C38.5733 42.467 39.0548 42.6832 39.0548 43.3752C39.0548 44.5372 37.8727 44.6381 37.5353 44.6381C36.1282 44.6381 35.886 43.8279 35.886 43.3493H36.6617Z" fill="white"/>
<path fill-rule="evenodd" clip-rule="evenodd" d="M40.5254 44.5372H39.7209V40.6793H40.5254V44.5372Z" fill="white"/>
<path fill-rule="evenodd" clip-rule="evenodd" d="M43.7432 40.6793H44.4928V44.5372H43.6884L42.117 41.7836H42.1025V44.5372H41.3529V40.6793H42.2006L43.7287 43.3637H43.7432V40.6793Z" fill="white"/>
<path fill-rule="evenodd" clip-rule="evenodd" d="M47.1916 42.4583H48.8005V44.5372H48.2642L48.1835 44.0557C47.9787 44.2892 47.6846 44.6381 46.9811 44.6381C46.0527 44.6381 45.2107 43.9721 45.2107 42.6198C45.2107 41.5674 45.7961 40.5726 47.0936 40.5784C48.2786 40.5784 48.7457 41.3454 48.7861 41.8788H47.9816C47.9816 41.7288 47.7077 41.2444 47.1397 41.2444C46.563 41.2444 46.0325 41.6423 46.0325 42.6284C46.0325 43.6809 46.6063 43.9548 47.1541 43.9548C47.33 43.9548 47.924 43.8856 48.0883 43.1071H47.1916V42.4583Z" fill="white"/>
<path fill-rule="evenodd" clip-rule="evenodd" d="M3.80602 48.4672C3.80602 47.3888 4.41728 47.1178 4.85267 47.1178C5.28805 47.1178 5.89932 47.3859 5.89932 48.4672C5.89932 49.5456 5.28805 49.8166 4.85267 49.8166C4.41728 49.8166 3.80602 49.5456 3.80602 48.4672ZM2.99868 48.4672C2.99868 50.2779 4.34232 50.4999 4.85267 50.4999C5.36302 50.4999 6.70666 50.2779 6.70666 48.4672C6.70666 46.6564 5.36302 46.4373 4.85267 46.4373C4.34232 46.4373 2.99868 46.6564 2.99868 48.4672Z" fill="white"/>
<path fill-rule="evenodd" clip-rule="evenodd" d="M8.91239 48.3375V47.2043H9.5525C10.0513 47.2043 10.2618 47.3629 10.2618 47.7377C10.2618 47.9107 10.2618 48.3375 9.65918 48.3375H8.91239ZM9.83506 49.0035C10.8731 49.0035 11.0634 48.1212 11.0634 47.7723C11.0634 47.0169 10.6136 46.5383 9.86678 46.5383H8.10506V50.3962H8.90951V49.0035H9.83506Z" fill="white"/>
<path fill-rule="evenodd" clip-rule="evenodd" d="M13.2518 48.3375V47.2043H13.889C14.3878 47.2043 14.5983 47.3629 14.5983 47.7377C14.5983 47.9107 14.5983 48.3375 13.9986 48.3375H13.2518ZM13.2518 49.0035H14.1745C15.2096 49.0035 15.4057 48.1212 15.4057 47.7723C15.4057 47.0169 14.9559 46.5383 14.2091 46.5383H12.4445V50.3962H13.2518V49.0035Z" fill="white"/>
<path fill-rule="evenodd" clip-rule="evenodd" d="M17.4211 48.4672C17.4211 47.3888 18.0324 47.1178 18.4678 47.1178C18.9003 47.1178 19.5144 47.3859 19.5144 48.4672C19.5144 49.5456 18.9003 49.8166 18.4678 49.8166C18.0324 49.8166 17.4211 49.5456 17.4211 48.4672ZM16.6138 48.4672C16.6138 50.2779 17.9545 50.4999 18.4678 50.4999C18.9781 50.4999 20.3189 50.2779 20.3189 48.4672C20.3189 46.6564 18.9752 46.4373 18.4678 46.4373C17.9574 46.4373 16.6138 46.6564 16.6138 48.4672Z" fill="white"/>
<path fill-rule="evenodd" clip-rule="evenodd" d="M22.5131 47.2044H23.5165C23.9894 47.2044 24.0788 47.5071 24.0788 47.7118C24.0788 48.0924 23.8769 48.2395 23.456 48.2395H22.5131V47.2044ZM22.5131 50.3962V48.8854H23.3435C23.9404 48.8854 23.9721 49.0901 23.9721 49.6148C23.9721 50.0127 24.0038 50.2088 24.0557 50.3934H24.9466V50.2896C24.7736 50.2261 24.7736 50.0848 24.7736 49.5226C24.7736 48.8018 24.6006 48.6835 24.2864 48.5423C24.667 48.4154 24.8803 48.0492 24.8803 47.6253C24.8803 47.2909 24.6929 46.5354 23.6664 46.5354H21.7144V50.3962H22.5131Z" fill="white"/>
<path fill-rule="evenodd" clip-rule="evenodd" d="M27.8877 50.3962H27.0803V47.2216H25.9155V46.5383H29.0525V47.2216H27.8877V50.3962Z" fill="white"/>
<path fill-rule="evenodd" clip-rule="evenodd" d="M33.3746 49.0468C33.3746 50.0617 32.7634 50.5 31.7888 50.5C31.437 50.5 30.9094 50.4106 30.5663 50.03C30.3558 49.7964 30.275 49.4821 30.2664 49.0958V46.5383H31.0882V49.041C31.0882 49.5773 31.3995 49.8166 31.7773 49.8166C32.3309 49.8166 32.5558 49.5456 32.5558 49.0785V46.5383H33.3775V49.0468H33.3746Z" fill="white"/>
<path fill-rule="evenodd" clip-rule="evenodd" d="M37.2758 46.5383H38.0283V50.3962H37.221L35.6467 47.6455H35.6381V50.3962H34.8855V46.5383H35.7332L37.2643 49.2226H37.2758V46.5383Z" fill="white"/>
<path fill-rule="evenodd" clip-rule="evenodd" d="M40.3004 50.3962H39.4931V46.5383H40.3004V50.3962Z" fill="white"/>
<path fill-rule="evenodd" clip-rule="evenodd" d="M43.4461 50.3962H42.6417V47.2216H41.4768V46.5383H44.611V47.2216H43.4461V50.3962Z" fill="white"/>
<path fill-rule="evenodd" clip-rule="evenodd" d="M47.6587 50.3962H46.8514V48.9401L45.5192 46.5383H46.4708L47.2694 48.2135L48.0364 46.5383H48.9475L47.6587 48.9487V50.3962Z" fill="white"/>
<path fill-rule="evenodd" clip-rule="evenodd" d="M25.9702 0.5L0 13.2905V19.2994H2.90641V37.3202H48.8322V19.2994H52.3211V13.2905L25.9702 0.5ZM8.52892 31.8909V15.4213L25.9702 6.50888L43.2184 15.4213V31.8909H8.52892Z" fill="white"/>
<path fill-rule="evenodd" clip-rule="evenodd" d="M33.9139 21.2342H17.8306V15.4214H33.9139V21.2342Z" fill="white"/>
<path fill-rule="evenodd" clip-rule="evenodd" d="M33.9139 29.5697H17.8306V23.754H33.9139V29.5697Z" fill="white"/>
</svg>
